<?xml version="1.0" encoding="utf-8"?>
<!-- Generator: Adobe Illustrator 22.0.0, SVG Export Plug-In . SVG Version: 6.00 Build 0)  -->
<svg version="1.1" id="Layer_1" xmlns="http://www.w3.org/2000/svg" xmlns:xlink="http://www.w3.org/1999/xlink" x="0px" y="0px"
	 viewBox="0 0 94.9 16.5" style="enable-background:new 0 0 94.9 16.5;" xml:space="preserve">
<style type="text/css">
	.st0{fill:#28509E;}
	.st1{fill:#A7A8AB;}
</style>
<g>
	<g>
		<g>
			<path class="st0" d="M27.2,8.4c0-0.1-0.1-0.2-0.1-0.3c-0.1-0.4-0.5-0.6-0.9-0.5c-0.4,0.1-0.6,0.5-0.5,0.9c0,0.1,0.1,0.2,0.1,0.3
				c0.2,0.6,0.6,1.8,0.7,2.5c-0.4,0.2-1.3,0.3-2.3,0.3c-0.3-1.5-1.7-2.6-3.3-2.6c-0.4,0-0.7,0.3-0.7,0.7c0,0.4,0.3,0.7,0.7,0.7
				c1.1,0,1.9,0.9,1.9,1.9c0,1.1-0.9,1.9-1.9,1.9c-1.1,0-1.9-0.9-1.9-1.9c0-0.4-0.3-0.7-0.7-0.7h-8.2c-0.3-1.5-1.7-2.6-3.3-2.6
				c-0.4,0-0.7,0.3-0.7,0.7c0,0.4,0.3,0.7,0.7,0.7c1.1,0,1.9,0.9,1.9,1.9c0,1.1-0.9,1.9-1.9,1.9c-1.1,0-1.9-0.9-1.9-1.9
				c0,0,0-0.3-0.2-0.5c-0.2-0.2-0.5-0.2-0.5-0.2c-1.2,0-2.5-0.2-2.9-0.4c0,0,0,0,0,0c0.1-0.8,0.4-3.1,1.3-3.8c0.9-0.7,3.3-1,4.1-1.1
				c0.2,0,0.3-0.1,0.4-0.2c0,0,2.5-2.3,4.1-3.2C12.5,2.2,16,2,17.2,2c0,0,0,0,0,0c1.3,0,4.9,0.1,6.1,1.2c0.4,0.3,0.8,1.2,1.2,2h-7.8
				c-0.3-1.1-1.3-1.8-2.5-1.8c-0.7,0-1.4,0.3-1.9,0.8v0.2c0,0.1,0.1,0.2,0.2,0.2h1.9c0.1,0,0.2,0.1,0.2,0.1l0.6,1.1
				c0,0.1,0,0.2,0,0.3l-0.6,1.1c0,0.1-0.1,0.1-0.2,0.1h-1.9c-0.1,0-0.2,0.1-0.2,0.2v0.2c0.5,0.5,1.1,0.8,1.9,0.8
				c1.2,0,2.1-0.8,2.5-1.8h8.9c0.2,0,0.4-0.1,0.6-0.3c0.1-0.2,0.2-0.4,0.1-0.6c-0.1-0.3-0.9-2.7-1.9-3.6c-1.9-1.6-6.5-1.6-7.1-1.6
				c-0.5,0-4.9,0.1-6.7,1.2C9.1,2.6,7,4.4,6.4,5C5.5,5.1,3,5.4,1.8,6.3c-1.4,1.1-1.7,3.6-1.8,4.8c0,0.1,0,0.2,0,0.3
				c0,0.3,0.1,0.6,0.2,0.8c0.2,0.3,0.7,0.6,2.5,0.8c0.4,0,0.7,0.1,1,0.1c0.3,1.5,1.7,2.7,3.3,2.7c1.6,0,2.9-1.1,3.3-2.6h7.5
				c0.3,1.5,1.7,2.6,3.3,2.6c1.6,0,2.9-1.1,3.3-2.6c0.4,0,0.8,0,1.3-0.1c0.7-0.1,2.5-0.3,2.5-1.4C28,10.8,27.6,9.6,27.2,8.4z"/>
		</g>
		<g>
			<path class="st0" d="M6.9,13.5C7.5,13.5,8,13,8,12.4c0-0.6-0.5-1.1-1.1-1.1c-0.6,0-1.1,0.5-1.1,1.1C5.8,13,6.3,13.5,6.9,13.5z"/>
		</g>
		<g>
			<path class="st0" d="M21,13.5c0.6,0,1.1-0.5,1.1-1.1c0-0.6-0.5-1.1-1.1-1.1c-0.6,0-1.1,0.5-1.1,1.1C19.9,13,20.4,13.5,21,13.5z"
				/>
		</g>
	</g>
	<g>
		<path class="st0" d="M38.7,8.6c-0.9,0-1.7-0.3-2.4-1c-0.6-0.6-0.9-1.4-0.9-2.4c0-0.9,0.3-1.7,0.9-2.4c0.6-0.6,1.4-1,2.4-1
			c0.6,0,1,0.1,1.4,0.3c0.4,0.2,0.7,0.4,1.1,0.8l-0.8,1c-0.3-0.3-0.5-0.4-0.8-0.5c-0.2-0.1-0.5-0.2-0.9-0.2c-0.5,0-1,0.2-1.3,0.6
			c-0.4,0.4-0.5,0.9-0.5,1.4c0,0.6,0.2,1,0.5,1.4c0.4,0.4,0.8,0.6,1.3,0.6c0.3,0,0.6-0.1,0.9-0.2s0.5-0.3,0.8-0.6l0.9,1
			c-0.3,0.4-0.7,0.6-1.1,0.8C39.8,8.5,39.3,8.6,38.7,8.6z"/>
		<path class="st0" d="M41.9,8.5L44.7,2H46l2.8,6.5h-1.5L46.7,7H44l-0.6,1.4H41.9z M44.5,5.8h1.7l-0.9-2.1L44.5,5.8z"/>
		<path class="st0" d="M49.7,8.5V2h2.9c0.8,0,1.4,0.2,1.9,0.7c0.4,0.4,0.6,0.9,0.6,1.5c0,1-0.5,1.6-1.4,2l1.6,2.3h-1.7l-1.4-2.1
			h-1.1v2.1H49.7z M51.1,5.2h1.4c0.3,0,0.6-0.1,0.8-0.3c0.2-0.2,0.3-0.4,0.3-0.7c0-0.3-0.1-0.5-0.3-0.7c-0.2-0.2-0.5-0.2-0.8-0.2
			h-1.4V5.2z"/>
		<path class="st0" d="M56.4,8.5V2h1.5l1.7,2.7L61.3,2h1.5v6.4h-1.4V4.3L59.6,7h0l-1.8-2.7v4.2H56.4z"/>
		<path class="st0" d="M63.8,8.5L66.5,2h1.3l2.8,6.5h-1.5L68.5,7h-2.7l-0.6,1.4H63.8z M66.3,5.8H68l-0.9-2.1L66.3,5.8z"/>
		<path class="st0" d="M73.8,8.5c-1.1,0-2-0.3-2.7-1l0.8-1c0.6,0.5,1.3,0.8,1.9,0.8c0.3,0,0.5-0.1,0.7-0.2c0.2-0.1,0.2-0.3,0.2-0.5
			c0-0.2-0.1-0.3-0.3-0.4c-0.2-0.1-0.5-0.2-1-0.4c-0.4-0.1-0.7-0.2-0.9-0.3c-0.2-0.1-0.4-0.2-0.6-0.4c-0.2-0.1-0.4-0.3-0.4-0.6
			c-0.1-0.2-0.1-0.5-0.1-0.8c0-0.6,0.2-1,0.6-1.4c0.4-0.4,1-0.5,1.6-0.5c0.9,0,1.7,0.3,2.4,0.8l-0.7,1.1c-0.6-0.4-1.2-0.6-1.7-0.6
			c-0.3,0-0.5,0.1-0.6,0.2c-0.1,0.1-0.2,0.2-0.2,0.4c0,0.2,0.1,0.4,0.3,0.5c0.2,0.1,0.6,0.2,1.1,0.4c0.7,0.2,1.2,0.4,1.5,0.7
			C76,5.6,76.1,6,76.1,6.6c0,0.6-0.2,1.1-0.6,1.5C75.1,8.4,74.5,8.5,73.8,8.5z"/>
		<path class="st0" d="M78.7,8.5V3.3h-2V2h5.3v1.3h-2v5.1H78.7z"/>
		<path class="st0" d="M83.2,8.5V2H88v1.3h-3.4v1.3h3v1.3h-3v1.3h3.5v1.3H83.2z"/>
		<path class="st0" d="M89.3,8.5V2h2.9c0.8,0,1.4,0.2,1.9,0.7c0.4,0.4,0.6,0.9,0.6,1.5c0,1-0.5,1.6-1.4,2l1.6,2.3h-1.7l-1.4-2.1
			h-1.1v2.1H89.3z M90.7,5.2h1.4c0.3,0,0.6-0.1,0.8-0.3c0.2-0.2,0.3-0.4,0.3-0.7c0-0.3-0.1-0.5-0.3-0.7c-0.2-0.2-0.5-0.2-0.8-0.2
			h-1.4V5.2z"/>
	</g>
	<g>
		<path class="st1" d="M35.5,14.3l1.2-2.7h0.5l1.2,2.7h-0.6l-0.2-0.6h-1.1l-0.2,0.6H35.5z M36.6,13.2h0.7l-0.4-0.9L36.6,13.2z"/>
		<path class="st1" d="M39,14.3v-2.7h1.3c0.3,0,0.5,0.1,0.7,0.2c0.1,0.1,0.2,0.3,0.2,0.5c0,0.3-0.1,0.4-0.4,0.6
			c0.2,0.1,0.3,0.1,0.4,0.3c0.1,0.1,0.1,0.2,0.1,0.4c0,0.2-0.1,0.4-0.3,0.6c-0.2,0.1-0.4,0.2-0.7,0.2H39z M39.6,12.7h0.5
			c0.3,0,0.4-0.1,0.4-0.3c0-0.1,0-0.2-0.1-0.2c-0.1,0-0.2-0.1-0.3-0.1h-0.6V12.7z M39.6,13.8h0.7c0.3,0,0.4-0.1,0.4-0.3
			c0-0.2-0.1-0.3-0.4-0.3h-0.7V13.8z"/>
		<path class="st1" d="M42.5,14.3v-2.1h-0.8v-0.5h2.2v0.5h-0.8v2.1H42.5z"/>
		<path class="st1" d="M46.8,14c-0.3,0.3-0.6,0.4-1,0.4c-0.4,0-0.8-0.1-1-0.4c-0.3-0.3-0.4-0.6-0.4-1c0-0.4,0.1-0.7,0.4-1
			c0.3-0.3,0.6-0.4,1-0.4c0.4,0,0.8,0.1,1,0.4c0.3,0.3,0.4,0.6,0.4,1C47.2,13.4,47,13.7,46.8,14z M45.2,13.6
			c0.2,0.2,0.3,0.2,0.6,0.2c0.2,0,0.4-0.1,0.6-0.2c0.2-0.2,0.2-0.4,0.2-0.6c0-0.2-0.1-0.4-0.2-0.6c-0.2-0.2-0.3-0.2-0.6-0.2
			c-0.2,0-0.4,0.1-0.6,0.2c-0.2,0.2-0.2,0.4-0.2,0.6C44.9,13.2,45,13.4,45.2,13.6z"/>
		<path class="st1" d="M49.2,14.4c-0.4,0-0.7-0.1-1-0.4c-0.3-0.3-0.4-0.6-0.4-1c0-0.4,0.1-0.7,0.4-1c0.3-0.3,0.6-0.4,1-0.4
			c0.2,0,0.4,0,0.6,0.1c0.2,0.1,0.3,0.2,0.5,0.3l-0.4,0.4c-0.1-0.1-0.2-0.2-0.3-0.2c-0.1,0-0.2-0.1-0.4-0.1c-0.2,0-0.4,0.1-0.6,0.2
			c-0.1,0.2-0.2,0.4-0.2,0.6c0,0.2,0.1,0.4,0.2,0.6c0.1,0.2,0.3,0.2,0.6,0.2c0.1,0,0.3,0,0.4-0.1c0.1-0.1,0.2-0.1,0.3-0.2l0.4,0.4
			c-0.1,0.2-0.3,0.3-0.5,0.3C49.6,14.4,49.4,14.4,49.2,14.4z"/>
		<path class="st1" d="M50.9,14.3v-2.7h2v0.5h-1.4v0.5h1.3v0.5h-1.3v0.6H53v0.5H50.9z"/>
		<path class="st1" d="M53.7,14.3v-2.7h1.1c0.3,0,0.6,0.1,0.8,0.3c0.2,0.2,0.3,0.4,0.3,0.7c0,0.3-0.1,0.5-0.3,0.7
			c-0.2,0.2-0.5,0.2-0.8,0.2h-0.5v0.8H53.7z M54.3,13h0.5c0.1,0,0.3,0,0.3-0.1c0.1-0.1,0.1-0.2,0.1-0.3c0-0.1,0-0.2-0.1-0.3
			c-0.1-0.1-0.2-0.1-0.4-0.1h-0.5V13z"/>
		<path class="st1" d="M56.5,14.3v-2.7h1.3c0.3,0,0.5,0.1,0.7,0.2c0.1,0.1,0.2,0.3,0.2,0.5c0,0.3-0.1,0.4-0.4,0.6
			c0.2,0.1,0.3,0.1,0.4,0.3c0.1,0.1,0.1,0.2,0.1,0.4c0,0.2-0.1,0.4-0.3,0.6c-0.2,0.1-0.4,0.2-0.7,0.2H56.5z M57,12.7h0.5
			c0.3,0,0.4-0.1,0.4-0.3c0-0.1,0-0.2-0.1-0.2c-0.1,0-0.2-0.1-0.3-0.1H57V12.7z M57,13.8h0.7c0.3,0,0.4-0.1,0.4-0.3
			c0-0.2-0.1-0.3-0.4-0.3H57V13.8z"/>
		<path class="st1" d="M61.7,11.7v2.7h-0.6v-1.8L60,14.3h-0.6v-2.7H60v1.8l1.2-1.8H61.7z"/>
		<path class="st1" d="M63.8,14.4c-0.4,0-0.7-0.1-1-0.4c-0.3-0.3-0.4-0.6-0.4-1c0-0.4,0.1-0.7,0.4-1c0.3-0.3,0.6-0.4,1-0.4
			c0.2,0,0.4,0,0.6,0.1c0.2,0.1,0.3,0.2,0.5,0.3l-0.4,0.4c-0.1-0.1-0.2-0.2-0.3-0.2c-0.1,0-0.2-0.1-0.4-0.1c-0.2,0-0.4,0.1-0.6,0.2
			c-0.1,0.2-0.2,0.4-0.2,0.6c0,0.2,0.1,0.4,0.2,0.6c0.1,0.2,0.3,0.2,0.6,0.2c0.1,0,0.3,0,0.4-0.1s0.2-0.1,0.3-0.2l0.4,0.4
			c-0.1,0.2-0.3,0.3-0.5,0.3C64.3,14.4,64.1,14.4,63.8,14.4z"/>
	</g>
</g>
</svg>
