<?xml version="1.0" encoding="UTF-8"?>
<svg width="22px" height="20px" viewBox="0 0 22 20" version="1.1" xmlns="http://www.w3.org/2000/svg" xmlns:xlink="http://www.w3.org/1999/xlink">
    <!-- Generator: Sketch 49 (51002) - http://www.bohemiancoding.com/sketch -->
    <title>directions</title>
    <desc>Created with Sketch.</desc>
    <defs></defs>
    <g id="Page-1" stroke="none" stroke-width="1" fill="none" fill-rule="evenodd">
        <g id="drm" transform="translate(-978.000000, -2827.000000)" fill="#00CA9D" fill-rule="nonzero">
            <g id="Group-15" transform="translate(140.000000, 2825.000000)">
                <g id="Group-14-Copy" transform="translate(838.000000, 2.000000)">
                    <g id="directions">
                        <path d="M20.9194937,1.57957806 L18.8027848,0.124388186 C18.7043038,0.0567088608 18.5875949,0.0204219409 18.4681013,0.0204219409 L10.7291983,0.0204219409 C10.4029536,0.0204219409 10.138481,0.284894515 10.138481,0.611139241 L10.138481,4.61637131 L2.70725738,4.61637131 C2.58776371,4.61637131 2.47105485,4.65265823 2.37257384,4.72025316 L0.256033755,6.17544304 C0.0957805907,6.28565401 -2.57571742e-14,6.46776371 -2.57571742e-14,6.66227848 C-2.57571742e-14,6.85679325 0.0957805907,7.03881857 0.256033755,7.14902954 L2.37265823,8.60421941 C2.47113924,8.67189873 2.5878481,8.70818565 2.70734177,8.70818565 L10.1385654,8.70818565 L10.1385654,18.7922363 L7.67240506,18.7922363 C7.34616034,18.7922363 7.08168776,19.0567089 7.08168776,19.3829536 C7.08168776,19.7091983 7.34616034,19.9736709 7.67240506,19.9736709 L13.5576371,19.9736709 C13.8838819,19.9736709 14.1483544,19.7091983 14.1483544,19.3829536 C14.1483544,19.0567089 13.8838819,18.7922363 13.5576371,18.7922363 L11.3199156,18.7922363 L11.3199156,4.1121519 L18.4681013,4.1121519 C18.5875949,4.1121519 18.7043038,4.07586498 18.8027848,4.00818565 L20.9194093,2.55308017 C21.0796624,2.4428692 21.175443,2.26084388 21.175443,2.06624473 C21.175443,1.87164557 21.0797468,1.68970464 20.9194937,1.57957806 Z M2.89080169,7.52675105 L1.63341772,6.66227848 L2.89080169,5.79780591 L10.138481,5.79780591 L10.138481,7.52675105 L2.89080169,7.52675105 Z M18.2846414,2.9307173 L11.3199156,2.9307173 L11.3199156,1.20185654 L18.2846414,1.20185654 L19.5420253,2.06632911 L18.2846414,2.9307173 Z" id="Shape"></path>
                    </g>
                </g>
            </g>
        </g>
    </g>
</svg>