<?xml version="1.0" encoding="UTF-8"?>
<svg width="24px" height="19px" viewBox="0 0 24 19" version="1.1" xmlns="http://www.w3.org/2000/svg" xmlns:xlink="http://www.w3.org/1999/xlink">
    <!-- Generator: Sketch 49 (51002) - http://www.bohemiancoding.com/sketch -->
    <title>email</title>
    <desc>Created with Sketch.</desc>
    <defs></defs>
    <g id="Page-1" stroke="none" stroke-width="1" fill="none" fill-rule="evenodd">
        <g id="drm" transform="translate(-388.000000, -2828.000000)" fill="#00CA9D" fill-rule="nonzero">
            <g id="Group-15" transform="translate(140.000000, 2825.000000)">
                <g id="Group-13" transform="translate(248.000000, 2.000000)">
                    <g id="email" transform="translate(0.000000, 1.400000)">
                        <path d="M21.5538462,0 L2.07692308,0 C0.933138462,0 0,0.932123077 0,2.07692308 L0,15.9230769 C0,17.064 0.928984615,18 2.07692308,18 L21.5538462,18 C22.6947692,18 23.6307692,17.0710154 23.6307692,15.9230769 L23.6307692,2.07692308 C23.6307692,0.936 22.7017846,0 21.5538462,0 Z M21.2670462,1.38461538 L11.8594154,10.7922923 L2.37041538,1.38461538 L21.2670462,1.38461538 Z M1.38461538,15.6363692 L1.38461538,2.35703077 L8.05287692,8.96810769 L1.38461538,15.6363692 Z M2.36367692,16.6153846 L9.03613846,9.94292308 L11.3741538,12.2608615 C11.6448,12.5292 12.0815538,12.5283231 12.3510923,12.2587385 L14.6307692,9.97906154 L21.2670923,16.6153846 L2.36367692,16.6153846 Z M22.2461538,15.6363231 L15.6098308,9 L22.2461538,2.36363077 L22.2461538,15.6363231 Z" id="Shape"></path>
                    </g>
                </g>
            </g>
        </g>
    </g>
</svg>