<?xml version="1.0" encoding="UTF-8"?>
<svg width="24px" height="15px" viewBox="0 0 24 15" version="1.1" xmlns="http://www.w3.org/2000/svg" xmlns:xlink="http://www.w3.org/1999/xlink">
    <!-- Generator: Sketch 49 (51002) - http://www.bohemiancoding.com/sketch -->
    <title>G+ white</title>
    <desc>Created with Sketch.</desc>
    <defs></defs>
    <g id="Page-1" stroke="none" stroke-width="1" fill="none" fill-rule="evenodd">
        <g id="drm" transform="translate(-1285.000000, -3975.000000)" fill="#FFFFFF">
            <g id="Footer-4" transform="translate(0.000000, 3875.000000)">
                <g id="Menu" transform="translate(139.600000, 90.400000)">
                    <g id="Sosial" transform="translate(1068.000000, 9.000000)">
                        <path d="M98.4912,8.712 L98.4912,11.2176 L96.648,11.2176 L96.648,8.712 L94.0992,8.712 L94.0992,6.8832 L96.648,6.8832 L96.648,4.3776 L98.4912,4.3776 L98.4912,6.8832 L101.04,6.8832 L101.04,8.712 L98.4912,8.712 L98.4912,8.712 Z M85.3152,15.3648 C81.2688,15.3648 78,12.1392 78,8.1504 C78,4.176 81.2688,0.9648 85.3152,0.9648 C87.216,0.9648 88.944,1.6704 90.24,2.8512 L88.08,4.9248 C87.3312,4.3056 86.3664,3.9168 85.3152,3.9168 C82.9248,3.9168 81.0096,5.8176 81.0096,8.1504 C81.0096,10.4976 82.9248,12.3984 85.3152,12.3984 C87.144,12.3984 88.7136,11.2608 89.3328,9.6624 L85.2144,9.6624 L85.2144,6.6528 L89.3328,6.6528 L92.4288,6.6528 L92.4576,6.6528 C92.5584,7.1424 92.616,7.6464 92.616,8.1504 C92.616,12.1392 89.3472,15.3648 85.3152,15.3648 L85.3152,15.3648 Z" id="G+-white"></path>
                    </g>
                </g>
            </g>
        </g>
    </g>
</svg>