<?xml version="1.0" encoding="UTF-8"?>
<svg width="27px" height="22px" viewBox="0 0 27 22" version="1.1" xmlns="http://www.w3.org/2000/svg" xmlns:xlink="http://www.w3.org/1999/xlink">
    <!-- Generator: Sketch 49 (51002) - http://www.bohemiancoding.com/sketch -->
    <title>mission</title>
    <desc>Created with Sketch.</desc>
    <defs></defs>
    <g id="Page-1" stroke="none" stroke-width="1" fill="none" fill-rule="evenodd">
        <g id="drm" transform="translate(-830.000000, -1238.000000)" fill="#00CA9D" fill-rule="nonzero">
            <g id="Group-10" transform="translate(0.000000, 995.000000)">
                <g id="jason-wong-352463-unsplash">
                    <g id="Group-8" transform="translate(829.000000, 85.000000)">
                        <g id="Block-02" transform="translate(0.000000, 158.000000)">
                            <g id="mission" transform="translate(1.000000, 0.000000)">
                                <path d="M16.4391969,0.654023622 C16.4391969,0.295181102 16.1484331,0.00441732283 15.7895906,0.00441732283 L8.90783465,0.00441732283 C8.54899213,0.00441732283 8.25822835,0.295181102 8.25822835,0.654023622 L8.25822835,4.7843937 C8.25822835,5.14323622 8.54899213,5.434 8.90783465,5.434 L15.1399843,5.434 L15.1399843,7.26900787 L8.90783465,13.5031496 L7.30270079,11.8973228 C7.16662992,11.761252 6.97625197,11.6927402 6.78561417,11.7095433 C6.59393701,11.7266063 6.41966929,11.8277717 6.30984252,11.9857559 L0.11623622,20.8931575 C-0.0218267717,21.0916772 -0.0381102362,21.3504803 0.0739685039,21.5648504 C0.18596063,21.7793071 0.407866142,21.9135591 0.649692913,21.9135591 L25.424378,21.9135591 C25.4250709,21.9136457 25.4257638,21.9136457 25.4261102,21.9135591 C25.7849528,21.9135591 26.0757165,21.6227953 26.0757165,21.2639528 C26.0757165,21.1095197 26.0218425,20.9676457 25.9318504,20.8561732 L16.4391969,7.33275591 L16.4391969,0.654023622 Z M9.55744094,4.1347874 L9.55744094,1.30362992 L15.1399843,1.30362992 L15.1399843,4.1347874 L9.55744094,4.1347874 Z M1.89251969,20.6145197 L6.9330315,13.3653465 L8.44834646,14.8813543 C8.5702126,15.0031339 8.73547244,15.0716457 8.90783465,15.0716457 C9.08011024,15.0716457 9.24537008,15.0031339 9.36723622,14.8813543 L15.7022835,8.54422835 L24.1747087,20.6145197 L1.89251969,20.6145197 Z" id="Shape"></path>
                            </g>
                        </g>
                    </g>
                </g>
            </g>
        </g>
    </g>
</svg>