<?xml version="1.0" encoding="UTF-8"?>
<svg width="24px" height="22px" viewBox="0 0 24 22" version="1.1" xmlns="http://www.w3.org/2000/svg" xmlns:xlink="http://www.w3.org/1999/xlink">
    <!-- Generator: Sketch 49 (51002) - http://www.bohemiancoding.com/sketch -->
    <title>planning</title>
    <desc>Created with Sketch.</desc>
    <defs></defs>
    <g id="Page-1" stroke="none" stroke-width="1" fill="none" fill-rule="evenodd">
        <g id="drm" transform="translate(-1091.000000, -1238.000000)" fill="#00CA9D" fill-rule="nonzero">
            <g id="Group-10" transform="translate(0.000000, 995.000000)">
                <g id="jason-wong-352463-unsplash">
                    <g id="Group-8" transform="translate(829.000000, 85.000000)">
                        <g id="Block-02" transform="translate(0.000000, 158.000000)">
                            <g id="planning" transform="translate(262.000000, 0.000000)">
                                <path d="M22.6702509,2.8173405 L19.1217061,2.8173405 L19.1217061,0.648487455 C19.1217061,0.321799283 18.8569964,0.0570896057 18.5303082,0.0570896057 C18.2036201,0.0570896057 17.9389104,0.321799283 17.9389104,0.648487455 L17.9389104,2.8173405 L5.32273835,2.8173405 L5.32273835,0.648487455 C5.32273835,0.321799283 5.05794982,0.0570896057 4.7313405,0.0570896057 C4.40465233,0.0570896057 4.13994265,0.321799283 4.13994265,0.648487455 L4.13994265,2.8173405 L0.591397849,2.8173405 C0.264709677,2.8173405 0,3.08205018 0,3.40873835 L0,21.3515125 C0,21.6781219 0.264709677,21.9429104 0.591397849,21.9429104 L22.6702509,21.9429104 C22.9969391,21.9429104 23.2616487,21.6781219 23.2616487,21.3515125 L23.2616487,3.40873835 C23.2616487,3.08205018 22.9969391,2.8173405 22.6702509,2.8173405 Z M13.247233,9.64648746 L13.247233,12.4789677 L10.0144158,12.4789677 L10.0144158,9.64648746 L13.247233,9.64648746 Z M22.078853,12.4788889 L18.8457204,12.4788889 L18.8457204,9.6464086 L22.078853,9.6464086 L22.078853,12.4788889 Z M17.6629247,12.4788889 L14.4300287,12.4788889 L14.4300287,9.6464086 L17.6629247,9.6464086 L17.6629247,12.4788889 Z M10.0144158,13.6616846 L13.247233,13.6616846 L13.247233,16.4937706 L10.0144158,16.4937706 L10.0144158,13.6616846 Z M10.0144158,17.6765663 L13.247233,17.6765663 L13.247233,20.7601147 L10.0144158,20.7601147 L10.0144158,17.6765663 Z M14.4300287,17.6765663 L17.6629247,17.6765663 L17.6629247,20.7601147 L14.4300287,20.7601147 L14.4300287,17.6765663 Z M14.4300287,16.4937706 L14.4300287,13.6616846 L17.6629247,13.6616846 L17.6629247,16.4937706 L14.4300287,16.4937706 Z M18.8457204,13.6616846 L22.078853,13.6616846 L22.078853,16.4937706 L18.8457204,16.4937706 L18.8457204,13.6616846 Z M4.13994265,4.0001362 L4.13994265,6.16930466 C4.13994265,6.49599283 4.40465233,6.76070251 4.7313405,6.76070251 C5.05794982,6.76070251 5.32273835,6.49599283 5.32273835,6.16930466 L5.32273835,4.0001362 L17.9389104,4.0001362 L17.9389104,6.16930466 C17.9389104,6.49599283 18.2036201,6.76070251 18.5303082,6.76070251 C18.8569964,6.76070251 19.1217061,6.49599283 19.1217061,6.16930466 L19.1217061,4.0001362 L22.078853,4.0001362 L22.078853,8.46369176 L1.1827957,8.46369176 L1.1827957,4.0001362 L4.13994265,4.0001362 Z M1.1827957,9.64648746 L8.83162007,9.64648746 L8.83162007,20.7601147 L1.1827957,20.7601147 L1.1827957,9.64648746 Z M18.8457204,20.7601147 L18.8457204,17.6765663 L22.078853,17.6765663 L22.078853,20.7601147 L18.8457204,20.7601147 Z" id="Shape"></path>
                            </g>
                        </g>
                    </g>
                </g>
            </g>
        </g>
    </g>
</svg>