<?xml version="1.0" encoding="UTF-8"?>
<svg width="8px" height="14px" viewBox="0 0 8 14" version="1.1" xmlns="http://www.w3.org/2000/svg" xmlns:xlink="http://www.w3.org/1999/xlink">
    <!-- Generator: Sketch 49 (51002) - http://www.bohemiancoding.com/sketch -->
    <title>smartphone-call</title>
    <desc>Created with Sketch.</desc>
    <defs></defs>
    <g id="Page-1" stroke="none" stroke-width="1" fill="none" fill-rule="evenodd">
        <g id="drm" transform="translate(-1148.000000, -32.000000)" fill="#FFFFFF" fill-rule="nonzero">
            <g id="Group-6" transform="translate(1129.000000, 19.000000)">
                <g id="Group-2" transform="translate(19.000000, 10.000000)">
                    <g id="smartphone-call" transform="translate(0.000000, 3.000000)">
                        <path d="M7.06807314,0 L0.92992681,0 C0.418545738,0 0,0.404851141 0,0.900346281 L0,12.4292728 C-3.49382794e-16,12.9247679 0.418545738,13.3299999 0.92992681,13.3299999 L7.06807314,13.3299999 C7.57945422,13.3299999 7.99799995,12.9255296 7.99799995,12.4296536 L7.99799995,0.900346281 C7.99799995,0.404851141 7.57945422,0 7.06807314,0 Z M3.01714832,0.648980568 L4.98085163,0.648980568 C5.0430041,0.648980568 5.09335547,0.697730282 5.09335547,0.758286567 C5.09335547,0.818461995 5.0430041,0.867211709 4.98085163,0.867211709 L3.01714832,0.867211709 C2.95499585,0.867211709 2.90464448,0.818461995 2.90464448,0.758286567 C2.90464448,0.697730282 2.95499585,0.648980568 3.01714832,0.648980568 Z M3.99899998,12.8798268 C3.74212933,12.8798268 3.53403657,12.6783534 3.53403657,12.4292728 C3.53403657,12.1801922 3.74212933,11.9790996 3.99899998,11.9790996 C4.25587062,11.9790996 4.46396338,12.1801922 4.46396338,12.4292728 C4.46396338,12.6783534 4.25587062,12.8798268 3.99899998,12.8798268 Z M7.35090621,11.6637499 L0.64709374,11.6637499 L0.64709374,1.42783342 L7.35090621,1.42783342 L7.35090621,11.6637499 Z" id="Shape"></path>
                    </g>
                </g>
            </g>
        </g>
    </g>
</svg>