<?xml version="1.0" encoding="UTF-8"?>
<svg width="14px" height="23px" viewBox="0 0 14 23" version="1.1" xmlns="http://www.w3.org/2000/svg" xmlns:xlink="http://www.w3.org/1999/xlink">
    <!-- Generator: Sketch 49 (51002) - http://www.bohemiancoding.com/sketch -->
    <title>smartphone-call</title>
    <desc>Created with Sketch.</desc>
    <defs></defs>
    <g id="Page-1" stroke="none" stroke-width="1" fill="none" fill-rule="evenodd">
        <g id="drm" transform="translate(-140.000000, -2825.000000)" fill="#00CA9D" fill-rule="nonzero">
            <g id="Group-15" transform="translate(140.000000, 2825.000000)">
                <g id="Group-12">
                    <g id="smartphone-call">
                        <path d="M12.3722211,0 L1.62777887,0 C0.732638206,0 0,0.698542857 0,1.55348571 L0,21.4458571 C-6.11572786e-16,22.3008 0.732638206,23 1.62777887,23 L12.3722211,23 C13.2673618,23 14,22.3021143 14,21.4465143 L14,1.55348571 C14,0.698542857 13.2673618,0 12.3722211,0 Z M5.28132992,1.11977143 L8.71867008,1.11977143 C8.8274641,1.11977143 8.91560102,1.20388571 8.91560102,1.30837143 C8.91560102,1.4122 8.8274641,1.49631429 8.71867008,1.49631429 L5.28132992,1.49631429 C5.1725359,1.49631429 5.08439898,1.4122 5.08439898,1.30837143 C5.08439898,1.20388571 5.1725359,1.11977143 5.28132992,1.11977143 Z M7,22.2232571 C6.55036396,22.2232571 6.18611056,21.8756286 6.18611056,21.4458571 C6.18611056,21.0160857 6.55036396,20.6691143 7,20.6691143 C7.44963604,20.6691143 7.81388944,21.0160857 7.81388944,21.4458571 C7.81388944,21.8756286 7.44963604,22.2232571 7,22.2232571 Z M12.8673028,20.125 L1.13269723,20.125 L1.13269723,2.46362857 L12.8673028,2.46362857 L12.8673028,20.125 Z" id="Shape"></path>
                    </g>
                </g>
            </g>
        </g>
    </g>
</svg>